<svg width="15" height="10" viewBox="0 0 15 10" fill="none" xmlns="http://www.w3.org/2000/svg">
<path d="M7.18143 2.85712C6.61427 2.86086 6.07139 3.08783 5.67034 3.48888C5.26928 3.88994 5.04232 4.43281 5.03857 4.99997C5.03857 6.17283 6.00857 7.14283 7.18143 7.14283C8.35429 7.14283 9.32429 6.17283 9.32429 4.99997C9.32429 3.82712 8.35357 2.85712 7.18143 2.85712Z" fill="#DFEDF2"/>
<path d="M7.18143 0C1.72929 0 0.0907143 4.72643 0.0757143 4.77429L0 5L0.0750001 5.22571C0.0907144 5.27357 1.72929 10 7.18143 10C12.6336 10 14.2721 5.27357 14.2871 5.22571L14.3629 5L14.2879 4.77429C14.2721 4.72643 12.6336 0 7.18143 0ZM7.18143 8.57143C3.35929 8.57143 1.87857 5.82429 1.52 5C1.88 4.17286 3.36143 1.42857 7.18143 1.42857C11.0036 1.42857 12.4843 4.17571 12.8429 5C12.4829 5.82714 11.0014 8.57143 7.18143 8.57143Z" fill="#DFEDF2"/>
</svg>
